<svg width="30" height="30" viewBox="0 0 30 30" fill="none" xmlns="http://www.w3.org/2000/svg">
<path fill-rule="evenodd" clip-rule="evenodd" d="M18.1251 11.25C21.922 11.25 25.0001 14.328 25.0001 18.125C25.0001 19.5719 24.5531 20.9143 23.7897 22.0219L27.2986 25.5308L25.5308 27.2985L22.022 23.7897C20.9144 24.5531 19.5719 25 18.1251 25C14.3281 25 11.25 21.922 11.25 18.125C11.25 14.328 14.3281 11.25 18.1251 11.25ZM18.1251 13.75C15.7088 13.75 13.7501 15.7088 13.7501 18.125C13.7501 20.5413 15.7088 22.5 18.1251 22.5C20.5413 22.5 22.5 20.5412 22.5 18.125C22.5 15.7088 20.5413 13.75 18.1251 13.75ZM10.0237 17.5C10.0079 17.7063 10 17.9146 10 18.125C10 18.7704 10.0752 19.3982 10.2174 20.0001L2.5 20V17.5L10.0237 17.5ZM7.5001 3.75V16.25H3.75004V3.75H7.5001ZM12.5001 8.74998L12.4999 12.2621C11.3907 13.3266 10.5829 14.7028 10.2175 16.2499L8.75008 16.25V8.74998H12.5001ZM17.5001 6.25002V10.0237C16.1655 10.1244 14.8769 10.5552 13.7501 11.2773V6.24996L17.5001 6.25002ZM22.5 7.5L22.5001 11.2773C21.3733 10.5552 20.0847 10.1244 18.7501 10.0237V7.5H22.5Z" fill="#9E2AFF"/>
</svg>
